<?xml version="1.0" standalone="no"?>
<!DOCTYPE svg PUBLIC "-//W3C//DTD SVG 20010904//EN"
 "http://www.w3.org/TR/2001/REC-SVG-20010904/DTD/svg10.dtd">
<svg version="1.0" xmlns="http://www.w3.org/2000/svg"
 width="80.000000pt" height="80.000000pt" viewBox="0 0 80.000000 80.000000"
 preserveAspectRatio="xMidYMid meet">

<g transform="translate(0.000000,80.000000) scale(0.100000,-0.100000)"
fill="#000000" stroke="none">
<path d="M0 400 l0 -400 400 0 400 0 0 400 0 400 -400 0 -400 0 0 -400z m600
140 l0 -40 -80 0 -80 0 0 -40 0 -40 60 0 60 0 0 -40 0 -40 -60 0 -60 0 0 -60
0 -60 -50 0 -50 0 0 140 0 140 -24 0 c-34 0 -52 -25 -37 -53 14 -28 1 -81 -22
-85 -10 -2 -31 11 -47 28 -24 26 -30 41 -30 77 0 38 5 50 34 79 l34 34 176 0
176 0 0 -40z"/>
</g>
</svg>
