<?xml version="1.0" encoding="utf-8"?>

<svg version="1.1" id="Слой_1"
	xmlns="http://www.w3.org/2000/svg"
	xmlns:xlink="http://www.w3.org/1999/xlink" x="0px" y="0px" viewBox="0 0 261.6 82" style="enable-background:new 0 0 261.6 82;" xml:space="preserve">
	<style type="text/css">
	.st0{fill-rule:evenodd;clip-rule:evenodd;fill:url(#SVGID_1_);}
	.st1{fill-rule:evenodd;clip-rule:evenodd;fill:url(#SVGID_2_);}
	.st2{fill:#FEFEFE;}
	.st3{fill:url(#SVGID_3_);}
	.st4{fill:url(#SVGID_4_);}
	.st5{fill:url(#SVGID_5_);}
	.st6{fill:url(#SVGID_6_);}
	.st7{fill:url(#SVGID_7_);}
	.st8{fill:url(#SVGID_8_);}
	.st9{fill:url(#SVGID_9_);}
	.st10{fill:url(#SVGID_10_);}
	.st11{fill:url(#SVGID_11_);}
	.st12{fill:url(#SVGID_12_);}
	.st13{fill:url(#SVGID_13_);}
	.st14{fill:url(#SVGID_14_);}
	.st15{fill:url(#SVGID_15_);}
	.st16{fill:url(#SVGID_16_);}
	.st17{fill:url(#SVGID_17_);}
	.st18{fill:url(#SVGID_18_);}
	.st19{fill:url(#SVGID_19_);}
	.st20{fill:url(#SVGID_20_);}
	.st21{fill:url(#SVGID_21_);}
	.st22{fill:url(#SVGID_22_);}
	.st23{fill:url(#SVGID_23_);}
	.st24{fill:url(#SVGID_24_);}
	.st25{fill:url(#SVGID_25_);}
	.st26{fill:url(#SVGID_26_);}
	.st27{fill:url(#SVGID_27_);}
	</style>
	<g>
		<linearGradient id="SVGID_1_" gradientUnits="userSpaceOnUse" x1="7.1445" y1="63.4242" x2="259.0111" y2="63.4242">
			<stop offset="0" style="stop-color:#9F91AC"/>
			<stop offset="1" style="stop-color:#BDC3C7"/>
		</linearGradient>
		<path class="st0" d="M8.1,64.4h250c0.5,0,0.9-0.4,0.9-0.9v0c0-0.5-0.4-0.9-0.9-0.9H8.1c-0.5,0-0.9,0.4-0.9,0.9v0
		C7.1,64,7.6,64.4,8.1,64.4z"/>
		<g>
			<linearGradient id="SVGID_2_" gradientUnits="userSpaceOnUse" x1="45.6478" y1="69.3241" x2="89.06" y2="-12.3225">
				<stop offset="0" style="stop-color:#BDC3C7"/>
				<stop offset="1" style="stop-color:#9F91AC"/>
			</linearGradient>
			<path class="st1" d="M27.6,0.6h79.5c13.8,0,25,11.2,25,25v5.8c0,13.8-11.2,25-25,25H27.6c-13.8,0-25-11.2-25-25v-5.8
			C2.6,11.8,13.8,0.6,27.6,0.6z"/>
			<path class="st2" d="M52.7,28.5h-4.4 M48.2,28.5L48.2,28.5 M48.2,28.5h4.4 M48.2,29c0-0.2,0-0.4,0-0.5c0-0.2,0-0.4,0-0.5
			c-0.1-4-1.8-7.6-4.4-10.2c-2.7-2.7-6.5-4.4-10.7-4.4c-4.2,0-8,1.7-10.7,4.4c-2.7,2.7-4.4,6.5-4.4,10.7c0,4.2,1.7,8,4.4,10.7
			c2.7,2.7,6.5,4.4,10.7,4.4c4.2,0,8-1.7,10.7-4.4C46.4,36.6,48.1,33,48.2,29z M52.6,29c0.1,4,1.8,7.6,4.4,10.2
			c2.7,2.7,6.5,4.4,10.7,4.4s8-1.7,10.7-4.4c2.2-2.2,3.8-5.2,4.3-8.5h-15v-4.4h15.3c0.5-4.5,2.6-8.6,5.6-11.6
			c3.5-3.5,8.4-5.7,13.8-5.7c3.2,0,6.3,0.8,9,2.2c2.7,1.4,5.2,3.5,7,6.1l-3.6,2.5c-1.4-2-3.3-3.6-5.4-4.7c-2.1-1.1-4.5-1.7-7-1.7
			c-4.2,0-8,1.7-10.7,4.4c-2.7,2.7-4.4,6.5-4.4,10.7v0h0v0c0,4.2,1.7,7.9,4.4,10.7c2.7,2.7,6.5,4.4,10.7,4.4c2.5,0,4.9-0.6,7-1.7
			c2.1-1.1,4-2.7,5.4-4.7l3.6,2.5c-1.8,2.6-4.2,4.7-7,6.1c-2.8,1.4-5.8,2.2-9,2.2c-5.4,0-10.3-2.2-13.8-5.7
			c-0.5-0.5-0.9-0.9-1.3-1.4v7.2h-4.4v-7.2c-0.4,0.5-0.9,1-1.3,1.4c-3.5,3.5-8.4,5.7-13.8,5.7c-5.4,0-10.3-2.2-13.8-5.7
			c-1.4-1.4-2.6-3-3.5-4.8c-0.9,1.8-2.1,3.4-3.5,4.8c-3.5,3.5-8.4,5.7-13.8,5.7c-5.4,0-10.3-2.2-13.8-5.7c-3.5-3.5-5.7-8.4-5.7-13.8
			c0-5.4,2.2-10.3,5.7-13.8c3.5-3.5,8.4-5.7,13.8-5.7c5.4,0,10.3,2.2,13.8,5.7c1.4,1.4,2.6,3,3.5,4.8c0.9-1.8,2.1-3.4,3.5-4.8
			c3.5-3.5,8.4-5.7,13.8-5.7c3.2,0,6.3,0.8,9,2.2c2.7,1.4,5.2,3.5,7,6.1l-3.6,2.5c-1.4-2-3.3-3.6-5.4-4.7c-2.1-1.1-4.5-1.7-7-1.7
			c-4.2,0-8,1.7-10.7,4.4c-2.6,2.6-4.3,6.2-4.4,10.2c0,0.2,0,0.4,0,0.5C52.7,28.7,52.7,28.9,52.6,29z M52.6,28.5L52.6,28.5"/>
		</g>
		<linearGradient id="SVGID_3_" gradientUnits="userSpaceOnUse" x1="142.3504" y1="2.5351" x2="142.3504" y2="15.13">
			<stop offset="0" style="stop-color:#BDC3C7"/>
			<stop offset="1" style="stop-color:#9F91AC"/>
		</linearGradient>
		<polygon class="st3" points="137.3,15.1 139.5,15.1 139.5,8.6 144.6,15.1 147.4,15.1 141.9,8.4 147.1,2.5 144.4,2.5 139.5,8.5 
		139.5,2.5 137.3,2.5 	"/>
		<linearGradient id="SVGID_4_" gradientUnits="userSpaceOnUse" x1="153.4226" y1="2.5351" x2="153.4226" y2="15.1871">
			<stop offset="0" style="stop-color:#BDC3C7"/>
			<stop offset="1" style="stop-color:#9F91AC"/>
		</linearGradient>
		<path class="st4" d="M156.7,15.1h2.2V2.5H151l-0.2,2.5c-0.6,7.6-1.8,8-2.8,7.9l-0.1,2.2c2.5,0.4,4.1-0.8,4.9-8.2l0.3-2.4h3.7V15.1z
		"/>
		<linearGradient id="SVGID_5_" gradientUnits="userSpaceOnUse" x1="167.8016" y1="2.5351" x2="167.8016" y2="15.13">
			<stop offset="0" style="stop-color:#BDC3C7"/>
			<stop offset="1" style="stop-color:#9F91AC"/>
		</linearGradient>
		<polygon class="st5" points="164.4,15.1 171,6.2 171,15.1 173.2,15.1 173.2,2.5 171.2,2.5 164.6,11.5 164.6,2.5 162.4,2.5 
		162.4,15.1 	"/>
		<linearGradient id="SVGID_6_" gradientUnits="userSpaceOnUse" x1="181.7752" y1="2.5351" x2="181.7752" y2="15.13">
			<stop offset="0" style="stop-color:#BDC3C7"/>
			<stop offset="1" style="stop-color:#9F91AC"/>
		</linearGradient>
		<polygon class="st6" points="184.7,15.1 186.9,15.1 186.9,2.5 184.7,2.5 184.7,7.7 178.9,7.7 178.9,2.5 176.7,2.5 176.7,15.1 
		178.9,15.1 178.9,9.7 184.7,9.7 	"/>
		<linearGradient id="SVGID_7_" gradientUnits="userSpaceOnUse" x1="195.7485" y1="2.5351" x2="195.7485" y2="15.13">
			<stop offset="0" style="stop-color:#BDC3C7"/>
			<stop offset="1" style="stop-color:#9F91AC"/>
		</linearGradient>
		<polygon class="st7" points="192.3,15.1 198.9,6.2 198.9,15.1 201.1,15.1 201.1,2.5 199.2,2.5 192.6,11.5 192.6,2.5 190.4,2.5 
		190.4,15.1 	"/>
		<linearGradient id="SVGID_8_" gradientUnits="userSpaceOnUse" x1="209.722" y1="2.5351" x2="209.722" y2="15.13">
			<stop offset="0" style="stop-color:#BDC3C7"/>
			<stop offset="1" style="stop-color:#9F91AC"/>
		</linearGradient>
		<polygon class="st8" points="204.6,15.1 206.8,15.1 206.8,8.6 212,15.1 214.8,15.1 209.3,8.4 214.5,2.5 211.8,2.5 206.8,8.5 
		206.8,2.5 204.6,2.5 	"/>
		<linearGradient id="SVGID_9_" gradientUnits="userSpaceOnUse" x1="221.3171" y1="2.4811" x2="221.3171" y2="15.13">
			<stop offset="0" style="stop-color:#BDC3C7"/>
			<stop offset="1" style="stop-color:#9F91AC"/>
		</linearGradient>
		<path class="st9" d="M221.3,5.3l1.8,4.5h-3.7L221.3,5.3z M215,15.1h2.2l1.3-3.2h5.4l1.3,3.2h2.4l-5.3-12.6h-1.9L215,15.1z"/>
		<linearGradient id="SVGID_10_" gradientUnits="userSpaceOnUse" x1="142.2059" y1="22.2241" x2="142.2059" y2="37.0717">
			<stop offset="0" style="stop-color:#BDC3C7"/>
			<stop offset="1" style="stop-color:#9F91AC"/>
		</linearGradient>
		<path class="st10" d="M141.1,26.5l0.2-2.2h3.5v8.5h-5.3C140,32.2,140.9,29.7,141.1,26.5 M135.7,37.1h2.1v-2.3h8.8v2.3h2.1v-4.3H147
		V22.2h-7.8l-0.1,2.5c-0.2,4.7-1.4,7.4-1.9,8h-1.4V37.1z"/>
		<linearGradient id="SVGID_11_" gradientUnits="userSpaceOnUse" x1="156.057" y1="22.0078" x2="156.057" y2="35.017">
			<stop offset="0" style="stop-color:#BDC3C7"/>
			<stop offset="1" style="stop-color:#9F91AC"/>
		</linearGradient>
		<path class="st11" d="M151.8,28.5c0-2.6,1.8-4.4,4.2-4.4c2.4,0,4.2,1.8,4.2,4.4c0,2.5-1.6,4.4-4.2,4.4
		C153.7,32.9,151.8,31,151.8,28.5 M149.5,28.5c0,3.9,2.8,6.5,6.6,6.5s6.6-2.7,6.6-6.5c0-3.9-2.8-6.5-6.6-6.5
		C152.2,22,149.5,24.9,149.5,28.5z"/>
		<linearGradient id="SVGID_12_" gradientUnits="userSpaceOnUse" x1="169.8674" y1="22.2241" x2="169.8674" y2="34.819">
			<stop offset="0" style="stop-color:#BDC3C7"/>
			<stop offset="1" style="stop-color:#9F91AC"/>
		</linearGradient>
		<polygon class="st12" points="164.8,34.8 167,34.8 167,28.3 172.1,34.8 175,34.8 169.4,28.1 174.6,22.2 172,22.2 167,28.2 
		167,22.2 164.8,22.2 	"/>
		<linearGradient id="SVGID_13_" gradientUnits="userSpaceOnUse" x1="181.2214" y1="22.2241" x2="181.2214" y2="34.819">
			<stop offset="0" style="stop-color:#BDC3C7"/>
			<stop offset="1" style="stop-color:#9F91AC"/>
		</linearGradient>
		<polygon class="st13" points="176,24.3 180.1,24.3 180.1,34.8 182.3,34.8 182.3,24.3 186.4,24.3 186.4,22.2 176,22.2 	"/>
		<linearGradient id="SVGID_14_" gradientUnits="userSpaceOnUse" x1="193.402" y1="22.0078" x2="193.402" y2="35.017">
			<stop offset="0" style="stop-color:#BDC3C7"/>
			<stop offset="1" style="stop-color:#9F91AC"/>
		</linearGradient>
		<path class="st14" d="M189.2,28.5c0-2.6,1.8-4.4,4.2-4.4c2.4,0,4.2,1.8,4.2,4.4c0,2.5-1.6,4.4-4.2,4.4
		C191,32.9,189.2,31,189.2,28.5 M186.8,28.5c0,3.9,2.8,6.5,6.6,6.5c3.7,0,6.6-2.7,6.6-6.5c0-3.9-2.8-6.5-6.6-6.5
		C189.5,22,186.8,24.9,186.8,28.5z"/>
		<linearGradient id="SVGID_15_" gradientUnits="userSpaceOnUse" x1="206.5596" y1="22.1701" x2="206.5596" y2="34.819">
			<stop offset="0" style="stop-color:#BDC3C7"/>
			<stop offset="1" style="stop-color:#9F91AC"/>
		</linearGradient>
		<path class="st15" d="M206.1,24.2c1.5,0,2.3,0.6,2.3,2c0,1.4-1,2-2.3,2c-0.5,0-1,0-1.6-0.1v-3.9C205.1,24.3,205.7,24.2,206.1,24.2
		 M204.5,34.8v-4.6c0.5,0.1,1.3,0.1,1.6,0.1c3,0,4.6-1.9,4.6-4.1c0-2.1-1.2-4.1-4.9-4.1c-0.9,0-2.9,0-3.6,0v12.6H204.5z"/>
		<linearGradient id="SVGID_16_" gradientUnits="userSpaceOnUse" x1="216.4776" y1="22.1701" x2="216.4776" y2="34.819">
			<stop offset="0" style="stop-color:#BDC3C7"/>
			<stop offset="1" style="stop-color:#9F91AC"/>
		</linearGradient>
		<path class="st16" d="M216.4,25l1.8,4.5h-3.7L216.4,25z M210.2,34.8h2.2l1.3-3.2h5.4l1.3,3.2h2.4l-5.3-12.6h-1.9L210.2,34.8z"/>
		<linearGradient id="SVGID_17_" gradientUnits="userSpaceOnUse" x1="140.8185" y1="41.9131" x2="140.8185" y2="54.5079">
			<stop offset="0" style="stop-color:#BDC3C7"/>
			<stop offset="1" style="stop-color:#9F91AC"/>
		</linearGradient>
		<polygon class="st17" points="137.3,54.5 139.5,54.5 139.5,44 144.4,44 144.4,41.9 137.3,41.9 	"/>
		<linearGradient id="SVGID_18_" gradientUnits="userSpaceOnUse" x1="151.9641" y1="41.6967" x2="151.9641" y2="54.7061">
			<stop offset="0" style="stop-color:#BDC3C7"/>
			<stop offset="1" style="stop-color:#9F91AC"/>
		</linearGradient>
		<path class="st18" d="M147.7,48.2c0-2.6,1.8-4.4,4.2-4.4c2.4,0,4.2,1.8,4.2,4.4c0,2.5-1.6,4.4-4.2,4.4
		C149.6,52.6,147.7,50.7,147.7,48.2 M145.4,48.2c0,3.9,2.8,6.5,6.6,6.5c3.7,0,6.6-2.7,6.6-6.5c0-3.9-2.8-6.5-6.6-6.5
		C148.1,41.7,145.4,44.5,145.4,48.2z"/>
		<linearGradient id="SVGID_19_" gradientUnits="userSpaceOnUse" x1="164.7149" y1="41.8591" x2="164.7149" y2="54.5079">
			<stop offset="0" style="stop-color:#BDC3C7"/>
			<stop offset="1" style="stop-color:#9F91AC"/>
		</linearGradient>
		<path class="st19" d="M164.3,43.9c1.5,0,2.3,0.6,2.3,2c0,1.4-1,2-2.3,2c-0.5,0-1,0-1.6-0.1V44C163.3,43.9,163.8,43.9,164.3,43.9
		 M162.7,54.5v-4.6c0.5,0.1,1.3,0.1,1.6,0.1c3,0,4.6-1.9,4.6-4.1c0-2.1-1.2-4.1-4.9-4.1c-0.9,0-2.9,0-3.6,0v12.6H162.7z"/>
		<linearGradient id="SVGID_20_" gradientUnits="userSpaceOnUse" x1="175.6944" y1="41.9131" x2="175.6944" y2="54.5079">
			<stop offset="0" style="stop-color:#BDC3C7"/>
			<stop offset="1" style="stop-color:#9F91AC"/>
		</linearGradient>
		<path class="st20" d="M180.2,41.9H178v5.4c-0.6,0.4-1.4,0.8-2.4,0.8c-1.2,0-2.2-0.6-2.2-2.6v-3.6h-2.2v4.3c0,3,1.9,4,3.8,4
		c1.4,0,2.4-0.4,3-0.9v5.2h2.2V41.9z"/>
		<linearGradient id="SVGID_21_" gradientUnits="userSpaceOnUse" x1="188.2035" y1="41.8591" x2="188.2035" y2="54.5079">
			<stop offset="0" style="stop-color:#BDC3C7"/>
			<stop offset="1" style="stop-color:#9F91AC"/>
		</linearGradient>
		<path class="st21" d="M188.1,44.7l1.8,4.5h-3.7L188.1,44.7z M181.9,54.5h2.2l1.3-3.2h5.4l1.3,3.2h2.4l-5.3-12.6h-1.9L181.9,54.5z" />
		<linearGradient id="SVGID_22_" gradientUnits="userSpaceOnUse" x1="201.2889" y1="41.9131" x2="201.2889" y2="54.5079">
			<stop offset="0" style="stop-color:#BDC3C7"/>
			<stop offset="1" style="stop-color:#9F91AC"/>
		</linearGradient>
		<polygon class="st22" points="196.2,54.5 198.4,54.5 198.4,48 203.6,54.5 206.4,54.5 200.9,47.8 206.1,41.9 203.4,41.9 198.4,47.9 
		198.4,41.9 196.2,41.9 	"/>
		<linearGradient id="SVGID_23_" gradientUnits="userSpaceOnUse" x1="213.235" y1="41.6967" x2="213.235" y2="54.7061">
			<stop offset="0" style="stop-color:#BDC3C7"/>
			<stop offset="1" style="stop-color:#9F91AC"/>
		</linearGradient>
		<path class="st23" d="M209,48.2c0-2.6,1.8-4.4,4.2-4.4c2.4,0,4.2,1.8,4.2,4.4c0,2.5-1.6,4.4-4.2,4.4C210.9,52.6,209,50.7,209,48.2
		 M206.7,48.2c0,3.9,2.8,6.5,6.6,6.5c3.7,0,6.6-2.7,6.6-6.5c0-3.9-2.8-6.5-6.6-6.5C209.4,41.7,206.7,44.5,206.7,48.2z"/>
		<linearGradient id="SVGID_24_" gradientUnits="userSpaceOnUse" x1="226.4607" y1="41.8408" x2="226.4607" y2="54.5799">
			<stop offset="0" style="stop-color:#BDC3C7"/>
			<stop offset="1" style="stop-color:#9F91AC"/>
		</linearGradient>
		<path class="st24" d="M226,43.9c1.2,0,2,0.5,2,1.6c0,1.2-0.8,1.7-1.9,1.7h-1.5V44C225,43.9,225.5,43.9,226,43.9z M226.1,49.1
		c1.4,0,2.2,0.5,2.2,1.6c0,1.2-0.8,1.8-2.3,1.8c-0.6,0-1.2-0.1-1.5-0.1v-3.3H226.1z M222.4,54.5c0.7,0.1,2.4,0.1,3.5,0.1
		c2.7,0,4.7-1.2,4.7-3.8c0-1.7-1-2.6-2.2-2.9v0c1.1-0.5,1.8-1.4,1.8-2.9c0-1.7-1.1-3.1-4.1-3.1c-1.3,0-2.9,0.1-3.6,0.1V54.5z"/>
		<linearGradient id="SVGID_25_" gradientUnits="userSpaceOnUse" x1="239.1093" y1="41.6967" x2="239.1093" y2="54.7061">
			<stop offset="0" style="stop-color:#BDC3C7"/>
			<stop offset="1" style="stop-color:#9F91AC"/>
		</linearGradient>
		<path class="st25" d="M234.9,48.2c0-2.6,1.8-4.4,4.2-4.4c2.4,0,4.2,1.8,4.2,4.4c0,2.5-1.6,4.4-4.2,4.4
		C236.7,52.6,234.9,50.7,234.9,48.2 M232.5,48.2c0,3.9,2.8,6.5,6.6,6.5c3.7,0,6.6-2.7,6.6-6.5c0-3.9-2.8-6.5-6.6-6.5
		C235.2,41.7,232.5,44.5,232.5,48.2z"/>
		<linearGradient id="SVGID_26_" gradientUnits="userSpaceOnUse" x1="253.6236" y1="38.85" x2="253.6236" y2="54.5079">
			<stop offset="0" style="stop-color:#BDC3C7"/>
			<stop offset="1" style="stop-color:#9F91AC"/>
		</linearGradient>
		<path class="st26" d="M250.2,38.8c0.1,1.5,1.4,2.6,3.6,2.6c2,0,3.5-1,3.5-2.6h-2.1c-0.1,0.8-0.6,1-1.4,1c-0.9,0-1.4-0.3-1.5-1
		H250.2z M250.2,54.5l6.6-8.9v8.9h2.2V41.9h-1.9l-6.6,9v-9h-2.2v12.6H250.2z"/>
		<linearGradient id="SVGID_27_" gradientUnits="userSpaceOnUse" x1="133.0778" y1="69.3606" x2="133.0778" y2="81.4465">
			<stop offset="0" style="stop-color:#BDC3C7"/>
			<stop offset="1" style="stop-color:#9F91AC"/>
		</linearGradient>
		<path class="st27" d="M252.4,71.5h-1.9V80c0.5,0,1.4,0,2.3,0c2.2,0,3.5-1.2,3.5-3c0-1.7-1-2.9-3.1-2.9c-0.2,0-0.4,0-0.7,0V71.5z
		 M253,75.9c0.7,0,1.2,0.3,1.2,1.1c0,0.8-0.4,1.2-1.2,1.2c-0.2,0-0.4,0-0.6,0V76C252.7,76,252.8,75.9,253,75.9z M257.1,80h1.9v-8.5
		h-1.9V80z M239.9,73.3h2.5V80h1.9v-6.6h2.5v-1.8h-7V73.3z M230.4,75.8c0-1.5,1-2.6,2.4-2.6c1.4,0,2.4,1,2.4,2.6
		c0,1.4-0.8,2.6-2.4,2.6C231.5,78.3,230.4,77.2,230.4,75.8z M228.3,75.8c0,2.7,1.9,4.4,4.5,4.4s4.5-1.8,4.5-4.4
		c0-2.7-1.9-4.4-4.5-4.4C230.1,71.4,228.3,73.3,228.3,75.8z M224.9,77.7c-0.6,0.4-1.2,0.6-1.8,0.6c-1.5,0-2.6-1.1-2.6-2.6
		c0-1.7,1.1-2.6,2.4-2.6c0.8,0,1.3,0.2,1.7,0.5l0.9-1.4c-0.5-0.5-1.5-0.9-2.6-0.9c-2.9,0-4.4,1.9-4.4,4.4c0,2.6,1.8,4.4,4.4,4.4
		c1.1,0,2.2-0.4,2.8-1L224.9,77.7z M211.5,74l0.9,2.4h-1.9L211.5,74z M207.1,80h1.9l0.7-1.8h3.3l0.7,1.8h2.1l-3.5-8.5h-1.7L207.1,80
		z M201.9,73.3c0.7,0,1.2,0.2,1.2,1c0,0.8-0.6,1-1.1,1c-0.3,0-0.6,0-0.9-0.1v-1.9C201.4,73.3,201.6,73.3,201.9,73.3z M201,80v-2.9
		c0.3,0,0.8,0,0.9,0c2,0,3.1-1.3,3.1-2.8c0-1.5-0.8-2.8-3.4-2.8c-0.7,0-2.1,0-2.6,0V80H201z M188.4,80h1.9v-4l2.9,4h2.5l-3.4-4.6
		l3.2-3.9h-2.3l-2.8,3.7v-3.7h-1.9V80z M171.4,69.4c0,1.2,0.9,1.9,2.6,1.9c1.5,0,2.5-0.8,2.5-1.9h-1.8c0,0.5-0.2,0.6-0.7,0.6
		c-0.5,0-0.7-0.1-0.7-0.6H171.4z M171.8,80l3.7-5.3V80h1.9v-8.5h-1.7l-3.7,5.3v-5.3h-1.9V80H171.8z M159.2,75.8c0-1.5,1-2.6,2.4-2.6
		c1.4,0,2.4,1,2.4,2.6c0,1.4-0.8,2.6-2.4,2.6C160.3,78.3,159.2,77.2,159.2,75.8z M157.2,75.8c0,2.7,1.9,4.4,4.5,4.4
		c2.6,0,4.5-1.8,4.5-4.4c0-2.7-1.9-4.4-4.5-4.4C159,71.4,157.2,73.3,157.2,75.8z M150.5,73.3c0.5,0,0.9,0.3,0.9,0.8
		c0,0.6-0.4,0.8-0.9,0.8h-0.6v-1.5C150.1,73.3,150.2,73.3,150.5,73.3z M150.6,76.6c0.6,0,1,0.2,1,0.8c0,0.6-0.4,0.9-1.1,0.9
		c-0.4,0-0.5,0-0.7-0.1v-1.6H150.6z M148,80c0.5,0,1.6,0.1,2.4,0.1c1.8,0,3.2-0.8,3.2-2.6c0-1.1-0.6-1.7-1.2-1.9v0
		c0.6-0.4,1-1,1-1.9c0-1.2-0.8-2.1-2.8-2.1c-0.9,0-2.1,0-2.6,0.1V80z M137.1,75.8c0-1.5,1-2.6,2.4-2.6c1.4,0,2.4,1,2.4,2.6
		c0,1.4-0.8,2.6-2.4,2.6C138.2,78.3,137.1,77.2,137.1,75.8z M135,75.8c0,2.7,1.9,4.4,4.5,4.4c2.6,0,4.5-1.8,4.5-4.4
		c0-2.7-1.9-4.4-4.5-4.4C136.8,71.4,135,73.3,135,75.8z M128.5,73.3c0.7,0,1.2,0.2,1.2,1c0,0.8-0.6,1-1.1,1c-0.3,0-0.6,0-0.9-0.1
		v-1.9C128.1,73.3,128.2,73.3,128.5,73.3z M127.7,80v-2.9c0.3,0,0.8,0,0.9,0c2,0,3.1-1.3,3.1-2.8c0-1.5-0.8-2.8-3.4-2.8
		c-0.7,0-2.1,0-2.6,0V80H127.7z M114.9,75.8c0-1.5,1-2.6,2.4-2.6c1.4,0,2.4,1,2.4,2.6c0,1.4-0.8,2.6-2.4,2.6
		C116,78.3,114.9,77.2,114.9,75.8z M112.8,75.8c0,2.7,1.9,4.4,4.5,4.4c2.6,0,4.5-1.8,4.5-4.4c0-2.7-1.9-4.4-4.5-4.4
		C114.6,71.4,112.8,73.3,112.8,75.8z M105,74.8l0.1-1.4h1.7v4.8h-2.8C104.4,77.8,104.9,76.2,105,74.8z M101.1,81.4h1.8V80h5.2v1.5
		h1.8v-3.3h-1.1v-6.6h-5.5l-0.1,1.7c-0.1,2.8-0.9,4.5-1.2,5h-0.9V81.4z M94.9,80.1c1.5,0,3-1,3-2.5c0-1-0.4-1.7-1.4-2v0
		c0.8-0.5,1.1-1.2,1.1-1.8c0-1.5-1.1-2.4-2.6-2.4c-1.2,0-2.3,0.6-2.9,1.4l1.1,1.3c0.4-0.6,0.9-0.9,1.5-0.9c0.5,0,0.9,0.3,0.9,0.8
		c0,0.5-0.5,0.8-1,0.8h-0.7v1.8h0.8c0.9,0,1.3,0.4,1.3,0.9c0,0.7-0.7,0.9-1.2,0.9c-0.7,0-1.4-0.5-1.9-1l-1.1,1.3
		C92.3,79.3,93.1,80.1,94.9,80.1z M78.3,74l0.9,2.4h-1.9L78.3,74z M73.9,80h1.9l0.7-1.8h3.3l0.7,1.8h2.1l-3.5-8.5h-1.7L73.9,80z
		 M64.3,80h1.9v-4l2.9,4h2.5l-3.4-4.6l3.2-3.9H69l-2.8,3.7v-3.7h-1.9V80z M54.1,80l3.7-5.3V80h1.9v-8.5h-1.7l-3.7,5.3v-5.3h-1.9V80
		H54.1z M46,80h1.9v-8.5H46v3.2h-3.1v-3.2H41V80h1.9v-3.4H46V80z M30.8,80l3.7-5.3V80h1.9v-8.5h-1.7L31,76.8v-5.3h-1.9V80H30.8z
		 M22.6,80h1.9v-8.5h-5.6l-0.1,1.7c-0.3,4.7-1.1,5-1.8,4.8l0,1.9c2,0.3,3-0.6,3.6-5.1l0.2-1.6h1.9V80z M7.1,80h1.9v-4l2.9,4h2.5
		L11,75.4l3.2-3.9h-2.3l-2.8,3.7v-3.7H7.1V80z"/>
	</g>
</svg>
